<?xml version="1.0" standalone="no"?>
<!DOCTYPE svg PUBLIC "-//W3C//DTD SVG 20010904//EN"
 "http://www.w3.org/TR/2001/REC-SVG-20010904/DTD/svg10.dtd">
<svg version="1.0" xmlns="http://www.w3.org/2000/svg"
 width="289.000000pt" height="274.000000pt" viewBox="0 0 289.000000 274.000000"
 preserveAspectRatio="xMidYMid meet">

<g transform="translate(0.000000,274.000000) scale(0.100000,-0.100000)"
fill="#000000" stroke="none">
<path d="M0 1370 l0 -1370 1445 0 1445 0 0 1370 0 1370 -1445 0 -1445 0 0
-1370z m1654 1254 c262 -50 475 -163 666 -354 250 -250 373 -547 373 -900 1
-351 -124 -651 -373 -900 -158 -158 -313 -252 -515 -315 -150 -46 -237 -59
-395 -58 -343 2 -647 129 -891 372 -142 143 -235 290 -302 478 -51 142 -70
261 -70 423 0 352 127 657 377 905 212 210 465 331 769 365 91 11 259 3 361
-16z"/>
<path d="M1245 2529 c-424 -61 -796 -374 -934 -785 -194 -578 87 -1208 647
-1450 183 -79 430 -113 622 -85 711 104 1163 803 964 1490 -127 436 -510 768
-958 830 -89 13 -254 12 -341 0z m322 -320 c43 -6 102 -21 131 -35 l54 -24 -7
-42 c-21 -132 -68 -198 -184 -259 l-44 -23 39 -30 c76 -60 102 -91 118 -146
24 -81 22 -108 -11 -117 -16 -5 -116 -8 -223 -8 -239 0 -256 5 -253 78 2 74
69 170 147 209 l28 15 -51 33 c-76 48 -116 101 -147 192 -24 74 -25 80 -10
103 35 54 230 79 413 54z m-415 -752 c41 -36 195 -229 211 -264 5 -13 14 -23
18 -23 9 0 39 -53 39 -68 0 -5 -28 -24 -62 -42 -52 -28 -72 -33 -127 -33 -38
0 -82 7 -105 17 -21 9 -39 16 -40 16 -1 0 0 -34 2 -76 5 -90 -6 -132 -54 -212
-45 -77 -69 -90 -120 -66 -98 45 -280 278 -311 398 -15 60 -11 66 69 107 70
36 146 38 228 8 99 -36 90 -41 90 45 0 43 6 91 14 110 16 39 83 116 100 116 6
0 27 -15 48 -33z m688 -9 c43 -46 74 -152 65 -223 l-6 -54 50 20 c97 37 263
12 318 -47 19 -21 20 -28 11 -61 -24 -89 -95 -192 -202 -296 -70 -68 -156
-120 -182 -110 -21 8 -94 108 -104 144 -13 46 -13 175 1 201 6 11 8 22 6 24
-3 3 -39 -2 -82 -11 -60 -12 -85 -13 -118 -4 -53 14 -127 56 -127 72 0 54 274
377 320 377 10 0 33 -15 50 -32z"/>
<path d="M1325 2113 c-43 -7 -61 -24 -39 -36 25 -14 264 -21 297 -8 33 13 35
27 5 35 -32 9 -226 16 -263 9z"/>
<path d="M725 1089 c-13 -21 112 -196 173 -243 66 -51 31 33 -65 154 -65 82
-97 108 -108 89z"/>
<path d="M2121 1064 c-42 -30 -181 -206 -181 -231 0 -13 4 -23 8 -23 20 0 172
173 201 229 17 31 1 45 -28 25z"/>
</g>
</svg>
